<svg xmlns="http://www.w3.org/2000/svg" width="95" height="17" viewBox="0 0 95 17">
    <path fill="#063642" fill-rule="evenodd" d="M.264 16V1.455H3.29v5.468h.092c.405-.887 1.279-1.974 3.104-1.974 2.393 0 4.417 1.86 4.417 5.61 0 3.651-1.939 5.619-4.424 5.619-1.762 0-2.678-1.016-3.097-1.925h-.135V16H.264zm2.962-5.455c0 1.946.838 3.225 2.294 3.225 1.484 0 2.294-1.321 2.294-3.225 0-1.889-.796-3.188-2.294-3.188-1.47 0-2.294 1.242-2.294 3.188zm12.258-9.09V16H12.46V1.455h3.025zM17.444 16V5.09h3.026V16h-3.025zm1.52-12.273c-.894 0-1.633-.71-1.633-1.59 0-.881.739-1.599 1.633-1.599.902 0 1.641.718 1.641 1.598 0 .881-.739 1.591-1.64 1.591zm6.492 5.966V16H22.43V5.09h2.884v1.926h.128c.49-1.272 1.662-2.067 3.281-2.067 2.273 0 3.764 1.562 3.764 4.105V16h-3.025V9.594c.007-1.335-.725-2.13-1.94-2.13-1.22 0-2.059.823-2.066 2.23zM34.412 16V1.455h3.025v7.777h.164l3.494-4.141h3.473L40.52 9.814 44.774 16H41.23l-2.976-4.396-.817.93V16h-3.025zm15.419 0V1.455h3.026v5.468h.092c.405-.887 1.278-1.974 3.104-1.974 2.393 0 4.417 1.86 4.417 5.61 0 3.651-1.939 5.619-4.425 5.619-1.76 0-2.677-1.016-3.096-1.925h-.135V16H49.83zm2.962-5.455c0 1.946.838 3.225 2.294 3.225 1.484 0 2.294-1.321 2.294-3.225 0-1.889-.796-3.188-2.294-3.188-1.47 0-2.294 1.242-2.294 3.188zm12.258-9.09V16h-3.025V1.455h3.025zM67.011 16V5.09h3.026V16H67.01zm1.52-12.273c-.895 0-1.633-.71-1.633-1.59 0-.881.738-1.599 1.633-1.599.902 0 1.64.718 1.64 1.598 0 .881-.738 1.591-1.64 1.591zm6.492 5.966V16h-3.026V5.09h2.884v1.926h.128c.49-1.272 1.661-2.067 3.28-2.067 2.273 0 3.765 1.562 3.765 4.105V16h-3.026V9.594c.008-1.335-.724-2.13-1.939-2.13-1.221 0-2.06.823-2.066 2.23zM83.979 16V1.455h3.025v7.777h.164l3.494-4.141h3.473l-4.048 4.723L94.34 16h-3.544l-2.976-4.396-.817.93V16H83.98z"/>
</svg>
