<svg width="34" height="34" viewBox="0 0 34 34" fill="none" xmlns="http://www.w3.org/2000/svg">
<rect width="34" height="34" rx="17" fill="#063642"/>
<path d="M9.29289 23.2929C8.90237 23.6834 8.90237 24.3166 9.29289 24.7071C9.68342 25.0976 10.3166 25.0976 10.7071 24.7071L9.29289 23.2929ZM25.7071 9.70711C26.0976 9.31658 26.0976 8.68342 25.7071 8.29289C25.3166 7.90237 24.6834 7.90237 24.2929 8.29289L25.7071 9.70711ZM10.7071 8.29289C10.3166 7.90237 9.68342 7.90237 9.29289 8.29289C8.90237 8.68342 8.90237 9.31658 9.29289 9.70711L10.7071 8.29289ZM24.2929 24.7071C24.6834 25.0976 25.3166 25.0976 25.7071 24.7071C26.0976 24.3166 26.0976 23.6834 25.7071 23.2929L24.2929 24.7071ZM10.7071 24.7071L25.7071 9.70711L24.2929 8.29289L9.29289 23.2929L10.7071 24.7071ZM9.29289 9.70711L24.2929 24.7071L25.7071 23.2929L10.7071 8.29289L9.29289 9.70711Z" fill="#FDF6E3"/>
</svg>
