<svg width="162" height="43" viewBox="0 0 162 43" fill="none" xmlns="http://www.w3.org/2000/svg">
<path d="M57.0852 24.4814C56.4798 19.3209 54.3014 15.5441 50.7075 13.4185C46.7131 11.0569 40.6433 10.9196 36.3306 13.0952C33.2158 14.6662 30.6717 17.6906 29.542 21.1662C28.3764 24.7523 28.3764 29.4582 29.5432 33.1186C30.2909 35.4628 31.3048 37.1745 32.8674 38.7303C34.7425 40.5954 37.1964 41.7896 40.0032 42.2001C41.0079 42.3466 44.1782 42.3501 45.2176 42.2048C45.7084 42.1361 46.5591 41.9501 47.1066 41.7896C52.1949 40.3094 55.6673 36.3815 56.8595 30.7593C57.15 29.3849 57.2704 26.057 57.0852 24.4814ZM48.3879 30.6779C48.006 36.1047 46.8334 39.0478 44.647 40.0699C43.8541 40.4408 42.4524 40.4606 41.6862 40.1106C39.7845 39.2443 38.4372 36.6105 37.7612 32.4431C37.3329 29.8012 37.2924 23.9267 37.6825 21.0476C38.2311 17.0046 39.3886 14.6173 41.1919 13.8104C42.4281 13.2569 44.14 13.5848 45.2419 14.5836C47.6865 16.8046 48.9204 23.1162 48.3879 30.6779Z" fill="#FDF6E3"/>
<path d="M15.3041 3.956H18.9466C23.132 3.956 23.8173 4.04438 25.3 4.77461C27.4494 5.83392 29.0189 7.93161 30.3894 11.5723C30.9473 13.0549 30.9392 13.0503 32.1788 12.6712L33.0018 12.42L32.9265 7.0537C32.8849 4.10252 32.8177 1.47808 32.7761 1.22226L32.7008 0.757143L16.7312 0.725748C7.94835 0.707143 0.59031 0.723422 0.380808 0.760632L0 0.829237L0.0335666 1.78273L0.0671333 2.73623L1.28248 2.88274C2.86011 3.07228 3.80229 3.51763 4.36135 4.33624C5.62183 6.18276 5.84985 8.69557 5.84754 20.6433C5.84522 33.3644 5.58132 36.4539 4.36366 38.0586C3.73516 38.8865 3.22587 39.1574 1.80334 39.4225C-0.0520862 39.7679 0.00925976 39.7249 0.00925976 40.6888C0.00925976 41.2249 0.0578735 41.5156 0.153944 41.554C0.362288 41.6388 20.7893 41.6446 21.0081 41.5609C21.2882 41.4528 21.2708 39.9365 20.9884 39.79C20.8773 39.7318 20.1874 39.5946 19.4548 39.4842C18.7232 39.3737 17.9153 39.1923 17.6595 39.0807C16.3226 38.4958 15.5772 36.8772 15.2983 33.9504C15.098 31.8504 14.9406 27.9818 14.9406 25.1213V22.4968L16.1849 22.5352C18.8344 22.6166 20.2048 22.7561 20.7581 23.0015C21.9572 23.5341 22.9272 25.0201 23.4307 27.0957L23.6992 28.2004L24.6448 28.2341L25.5905 28.2678V21.2817V14.2956L24.646 14.3293L23.7015 14.3631L23.4249 15.4666C22.8901 17.6049 22.0174 18.9177 20.7338 19.5154C20.2117 19.7584 19.8402 19.8247 18.5924 19.9003C17.7625 19.9503 16.6004 19.9933 16.0124 19.9968L14.9418 20.0026L14.9406 16.5433C14.9395 13.0758 15.1258 5.71183 15.2427 4.56647L15.3041 3.956Z" fill="#FDF6E3"/>
<path d="M77.9569 11.5142C76.6119 11.5142 75.8862 11.6642 74.797 12.1653C72.8142 13.0781 71.3223 14.5735 69.9923 16.9828L69.5768 17.7351L69.63 16.3979C69.659 15.663 69.7087 14.2886 69.74 13.3456L69.7955 11.6304H69.5096C69.1439 11.6304 57.6768 13.9328 57.3307 14.0758C57.105 14.1688 57.0703 14.2688 57.0703 14.8235C57.0703 15.3933 57.0992 15.4688 57.3307 15.5177C57.4743 15.5479 58.0009 15.6514 58.5009 15.7479C59.5149 15.9433 59.8158 16.1014 60.2348 16.6572C61.0057 17.6828 61.1643 19.4921 61.1562 27.1538C61.1492 33.4178 61.0196 36.5376 60.7244 37.5132C60.3622 38.7097 59.7174 39.3213 58.597 39.5318C58.2347 39.5992 57.7567 39.6946 57.5333 39.7423L57.1282 39.8295L57.0935 40.633C57.0692 41.1969 57.1039 41.4655 57.2092 41.533C57.2914 41.5865 61.2141 41.6167 65.925 41.6016L74.4902 41.5737L74.5238 40.6725C74.5423 40.1772 74.5169 39.7713 74.4659 39.7713C73.8004 39.7702 71.7621 39.4899 71.4392 39.3551C70.4727 38.9492 70.005 38.0795 69.8036 36.3109C69.5664 34.2353 69.4263 29.0748 69.4923 24.8433C69.5583 20.5712 69.5594 20.5538 69.8245 20.2677C70.4449 19.5991 72.0179 19.0782 73.4254 19.0747C74.5551 19.0724 75.7195 19.3642 76.9603 19.9631C77.5552 20.2503 78.1039 20.4607 78.1791 20.4317C78.3342 20.3724 81.1445 12.9118 81.1445 12.5607C81.1469 12.0374 79.5519 11.5142 77.9569 11.5142Z" fill="#FDF6E3"/>
<path d="M160.241 28.5977C159.268 26.6418 157.476 25.3046 153.723 23.7279C150.658 22.4406 149.119 21.5499 148.179 20.5174C147.418 19.6802 147.194 19.0022 147.269 17.7499C147.337 16.5941 147.618 15.9045 148.34 15.1301C149.266 14.1359 150.54 13.7883 152.063 14.1115C154.564 14.6429 156.168 16.3825 157.55 20.0604C158.043 21.372 158.101 21.4139 158.988 21.0837L159.548 20.8744L159.528 19.3627C159.518 18.5313 159.475 16.786 159.435 15.4836L159.361 13.1162L158.943 12.9382C156.656 11.965 152.29 11.3592 149.446 11.6196C146.216 11.9161 143.846 12.9452 142.019 14.8464C140.204 16.7348 139.386 18.9511 139.531 21.579C139.651 23.7546 140.291 25.3162 141.626 26.6883C142.863 27.9605 143.901 28.5616 146.88 29.7302C151.687 31.6163 152.959 32.7337 152.948 35.0593C152.939 37.0233 151.903 38.4605 150.013 39.1303C149.338 39.3698 147.63 39.3675 146.719 39.1257C144.33 38.4931 142.501 36.414 140.942 32.5582L140.542 31.5698L140.074 31.5919C139.816 31.6035 139.46 31.6826 139.284 31.7675L138.965 31.9209L138.995 33.6058C139.011 34.5326 139.057 36.4861 139.098 37.9466L139.171 40.6036L139.704 40.8338C140.797 41.3059 144.079 42.028 146.141 42.2501C146.396 42.278 147.802 42.2873 149.266 42.271C151.807 42.2431 151.99 42.2257 153.268 41.8908C157.04 40.9012 159.482 38.7896 160.563 35.5826C160.895 34.5989 160.942 34.2977 160.989 32.8326C161.053 30.8814 160.873 29.8674 160.241 28.5977Z" fill="#FDF6E3"/>
<path d="M131.067 12.6922C127.889 11.0922 122.977 11.2073 119.385 12.9666C115.982 14.6329 113.639 17.4143 112.331 21.3388C111.65 23.383 111.435 25.0272 111.505 27.6784C111.547 29.3539 111.624 30.2191 111.796 30.9935C113.138 37.0098 117.244 41.1005 122.987 42.1413C124.251 42.3703 127.121 42.375 128.399 42.1506C130.223 41.8296 132.327 41.0145 133.654 40.1145C135.273 39.0156 136.934 37.3633 136.934 36.8505C136.934 36.5377 136.377 35.8179 136.136 35.8179C136.03 35.8179 135.58 36.054 135.137 36.3424C133.552 37.3715 132.038 37.7935 129.932 37.7935C127.026 37.7935 125.185 37.0668 123.334 35.1889C122.514 34.3575 122.178 33.9086 121.754 33.0854C120.821 31.2737 120.318 29.1912 120.242 26.8365L120.21 25.8202L128.775 25.79L137.34 25.7597L137.379 25.1783C137.4 24.8586 137.358 24.0214 137.286 23.3179C136.751 18.0911 134.646 14.4934 131.067 12.6922ZM127.664 23.4179C125.247 23.5527 120.058 23.6213 119.996 23.519C119.909 23.3772 120.124 21.3074 120.338 20.2353C120.853 17.6515 121.679 15.7852 122.814 14.6364C123.425 14.0178 123.703 13.8259 124.202 13.6771C124.545 13.5748 124.932 13.491 125.064 13.4922C125.596 13.4934 126.222 13.7655 126.688 14.198C127.941 15.3573 128.656 17.8469 128.798 21.5318L128.869 23.3504L127.664 23.4179Z" fill="#FDF6E3"/>
<path d="M100.037 12.135C99.3552 11.9931 98.7394 11.9641 97.4095 12.0106C95.4128 12.0803 94.0389 12.3803 92.5469 13.0734C92.0527 13.3024 91.6198 13.4908 91.5874 13.4908C91.5538 13.4908 91.5596 10.4559 91.599 6.74657C91.6545 1.51979 91.6395 0.00233677 91.5307 1.11729e-05C91.1545 -0.00580282 79.3333 2.25933 79.2036 2.36282C79.1064 2.43956 79.0659 2.69073 79.0879 3.07213C79.1261 3.7326 79.0485 3.68027 80.4896 4.00585C80.9236 4.10353 81.4306 4.29307 81.6181 4.42679C82.0996 4.77098 82.4989 5.51517 82.7756 6.58378C82.9943 7.42681 83.0233 8.02914 83.1251 13.7245C83.2281 19.5397 83.2085 25.5188 83.0487 36.4712L82.9828 41.0201L83.8312 41.2143C85.0569 41.4945 88.5664 42.0805 89.7146 42.198C91.3987 42.3701 95.3249 42.3457 96.5749 42.1561C102.003 41.334 106.095 38.1712 108.001 33.3235C108.507 32.0386 108.992 30.0584 109.162 28.5898C109.363 26.8653 109.25 23.4234 108.949 22.0385C107.795 16.728 104.496 13.0617 100.037 12.135ZM100.324 30.5212C99.7915 33.9096 98.8239 36.5235 97.4754 38.2131C96.8215 39.0317 95.7369 39.8061 94.8885 40.0596C94.341 40.2224 93.1673 40.2619 92.1233 40.1503C91.8895 40.1259 91.6395 40.034 91.5677 39.9468C91.3698 39.7061 91.1545 23.9223 91.2864 19.3036L91.3918 15.6408L92.3178 15.3722C93.6836 14.9769 95.1547 15.0385 96.1976 15.535C98.2915 16.5315 99.6665 18.9943 100.382 23.0246C100.612 24.3386 100.579 28.8979 100.324 30.5212Z" fill="#FDF6E3"/>
</svg>
