<svg width="152" height="50" viewBox="0 0 152 50" fill="none" xmlns="http://www.w3.org/2000/svg">
<path d="M34.525 26.6352C35.0403 26.3775 35.6071 26.0683 36.1224 25.8107C36.3285 25.7076 37.0499 25.45 37.153 25.2439C37.2045 25.1408 37.153 24.8316 37.153 24.677C37.153 24.2648 37.153 23.8526 37.153 23.4403C37.153 20.5031 37.153 17.5659 37.153 14.6287C37.153 11.7431 37.153 8.90893 37.153 6.02326C37.153 5.66255 37.153 5.25031 37.153 4.88961C37.153 4.83808 37.2045 4.47737 37.153 4.42584C37.1015 4.37431 36.6892 4.42584 36.6377 4.42584C36.277 4.42584 35.8647 4.42584 35.504 4.42584C35.0918 4.42584 35.1433 4.47737 34.8857 4.78655C33.9066 6.07479 32.9275 7.36304 31.9485 8.70281C31.4847 9.32117 31.0209 9.888 30.6087 10.5064C30.2995 10.9186 30.2995 10.9701 29.7327 10.9701C29.7842 9.83646 29.8358 8.70281 29.8873 7.56915C29.9388 6.74468 29.9388 5.9202 29.9903 5.09572C29.9903 4.78655 30.0419 4.47737 30.0419 4.16819C30.0419 4.06513 29.9903 3.75595 30.0419 3.70442C30.1449 3.54983 31.0725 3.65289 31.3301 3.65289C32.5668 3.65289 33.8035 3.65289 35.0403 3.65289C38.3897 3.65289 41.7907 3.65289 45.1401 3.65289C46.5314 3.65289 47.8712 3.65289 49.2625 3.65289C49.7262 3.65289 50.1385 3.65289 50.6023 3.65289C50.7053 3.65289 51.1691 3.60136 51.2721 3.65289C51.3752 3.70442 51.3237 4.0136 51.3237 4.16819C51.3752 4.83808 51.3752 5.55949 51.4267 6.22938C51.4783 7.72374 51.5298 9.16658 51.6329 10.6609C51.6329 10.764 51.6329 10.8671 51.6329 10.9701C51.3752 10.9701 51.1691 11.0217 50.963 10.8671C50.7568 10.7125 50.6023 10.4033 50.4477 10.1972C49.8293 9.3727 49.211 8.49669 48.5411 7.67221C47.9227 6.84774 47.3044 6.02326 46.686 5.19878C46.5829 5.04419 46.4283 4.68349 46.2222 4.58043C46.0676 4.47737 45.7585 4.5289 45.5523 4.5289C45.2947 4.5289 45.037 4.5289 44.7279 4.5289C44.6248 4.5289 44.2126 4.47737 44.1095 4.5289C44.058 4.58043 44.1095 4.58043 44.058 4.68349C43.9549 5.09572 44.058 5.61102 44.058 6.02326C44.058 7.87833 44.058 9.68188 44.058 11.5369C44.058 15.6593 44.058 19.8332 44.058 23.9556C44.058 24.3163 43.9549 24.8316 44.058 25.1923C44.161 25.5531 44.9855 25.8107 45.3462 25.9653C45.7069 26.1714 46.3253 26.326 46.6345 26.6352C46.7375 26.7382 46.8406 27.2535 46.7375 27.4081C46.686 27.4597 46.4283 27.4081 46.3768 27.4081C46.0676 27.4081 45.7585 27.4081 45.4493 27.4081C43.3366 27.4081 41.2238 27.4081 39.1111 27.4081C38.0805 27.4081 37.0499 27.4081 36.0709 27.4081C35.7101 27.4081 35.3494 27.4081 35.0403 27.4081C34.9372 27.4081 34.5765 27.4597 34.525 27.4081C34.4734 27.202 34.525 26.7898 34.525 26.6352ZM53.6425 25.7076C53.6425 23.1827 53.6425 20.6577 53.6425 18.1843C53.6425 14.0619 53.6425 9.99105 53.6425 5.86867C53.6425 5.19878 53.6425 4.5289 53.6425 3.85901C53.6425 3.54983 53.7456 3.08606 53.6425 2.77688C53.5395 2.41617 52.9211 2.36465 52.5604 2.21006C52.3543 2.15853 51.6844 2.00394 51.5813 1.79782C51.5813 1.74629 51.5813 1.38558 51.5813 1.38558C51.5813 1.38558 51.6844 1.38558 51.7359 1.38558C51.942 1.28252 52.3543 1.28252 52.6119 1.23099C53.0757 1.12793 53.5395 1.0764 53.9517 0.973341C54.9823 0.767221 56.0644 0.561102 57.095 0.406513C57.7134 0.303453 58.3317 0.148864 58.9501 0.0458043C59.1047 0.0458043 59.723 -0.0572553 59.7746 0.0458043C59.8261 0.0973341 59.7746 0.303453 59.7746 0.354983C59.7746 3.80748 59.7746 7.25998 59.7746 10.7125C59.7746 10.8155 59.7746 10.9186 59.7746 11.0217C61.7327 9.06352 65.1337 7.98139 67.8647 8.65128C70.2351 9.21811 71.0081 11.4339 71.0081 13.7012C71.0596 16.5869 71.0081 19.421 71.0081 22.3067C71.0081 23.0796 71.0081 23.8526 71.0081 24.6255C71.0081 24.8832 70.905 25.5015 71.0081 25.7592C71.0596 25.8622 71.2657 25.9138 71.3688 26.0168C71.7295 26.2229 72.1417 26.4291 72.5024 26.6352C72.554 26.6867 72.7085 26.7382 72.7085 26.7898C72.7601 26.8413 72.7601 27.3051 72.7085 27.3566C72.657 27.4597 72.657 27.4081 72.5024 27.4081C71.9356 27.5112 71.3172 27.4081 70.8019 27.4081C69.9259 27.4081 68.9984 27.4081 68.1224 27.4081C66.525 27.4081 64.9275 27.4081 63.3816 27.4081C63.3301 27.4081 63.0725 27.4597 63.0209 27.4081C62.9694 27.3566 62.9694 26.7898 63.0209 26.7382C63.1755 26.5321 63.7939 26.326 64 26.1714C64.1546 26.0683 64.6184 25.9138 64.7214 25.7592C64.8245 25.6046 64.7214 25.0378 64.7214 24.8832C64.7214 24.1617 64.7214 23.4919 64.7214 22.7704C64.7214 19.7817 64.7729 16.7415 64.7214 13.7527C64.7214 12.8767 64.5668 11.8461 63.6908 11.3824C63.2271 11.1247 62.6087 11.0732 62.0934 11.0732C61.6812 11.0732 61.2689 11.1762 60.9082 11.2793C60.599 11.3824 60.0322 11.5885 59.8261 11.8461C59.6715 12.0522 59.7746 12.3614 59.7746 12.6191C59.7746 13.2374 59.7746 13.9073 59.7746 14.5257C59.7746 17.9266 59.7746 21.3791 59.7746 24.7801C59.7746 25.0378 59.6715 25.5531 59.7746 25.7592C59.8261 25.8622 60.0322 25.9653 60.1868 26.0168C60.5475 26.2229 61.0113 26.4291 61.372 26.6352C61.4235 26.6867 61.5266 26.6867 61.5266 26.7382C61.5781 26.7898 61.5781 27.2535 61.5266 27.3051C61.475 27.3566 61.4235 27.3566 61.3205 27.3566C60.7536 27.4081 60.1353 27.3566 59.5684 27.3566C57.7134 27.3566 55.9098 27.3566 54.0548 27.3566C53.4364 27.3566 52.7665 27.3566 52.1482 27.3566C52.0966 27.3566 51.839 27.4081 51.7874 27.3566C51.7359 27.3051 51.7874 26.7898 51.839 26.6867C51.9936 26.4806 52.5604 26.2745 52.7665 26.1714C53.1272 26.0168 53.3849 25.8622 53.6425 25.7076ZM78.1192 18.5965C78.2222 20.8638 78.9436 23.3888 81.0048 24.6255C82.087 25.2439 83.4267 25.45 84.6635 25.3469C86.1578 25.1923 87.3945 24.4709 88.6828 23.801C88.6828 24.0072 88.7343 24.3679 88.6828 24.574C88.5797 24.7801 88.3221 25.0378 88.1675 25.1923C87.9614 25.3985 87.7037 25.6561 87.4461 25.8622C86.5701 26.5836 85.591 27.0989 84.5604 27.4597C82.6023 28.1295 80.335 28.078 78.3253 27.5627C76.7279 27.1505 75.285 26.3775 74.2029 25.1408C73.1208 23.9041 72.5024 22.3067 72.2448 20.6577C71.6779 17.1022 72.3478 13.0313 75.285 10.6609C77.8615 8.59975 81.9839 8.18751 85.0242 9.42423C88.7343 10.9186 89.3527 15.144 89.3527 18.6481C86.0548 18.6481 82.7569 18.6481 79.5105 18.6481C79.0467 18.5965 78.5829 18.5965 78.1192 18.5965ZM78.0161 17.7205C79.0467 17.669 80.0773 17.6175 81.1594 17.5144C81.7778 17.4629 82.4477 17.4629 83.066 17.4113C83.1691 17.4113 83.4267 17.4113 83.5298 17.3598C83.6844 17.2568 83.5813 16.2262 83.5813 16.02C83.5298 14.165 83.4783 11.8977 82.3961 10.3002C81.6232 9.16658 80.438 9.3727 79.7166 10.4033C78.2222 12.413 78.0161 15.4017 78.0161 17.7205ZM0 36.5289C0 33.6432 0.566828 30.6545 2.16425 28.2326C3.71015 25.8622 6.18358 24.3163 8.86312 23.5434C12.1095 22.6159 15.7166 22.7189 19.066 23.3373C19.7874 23.4919 20.5089 23.6465 21.1787 23.8526C21.2818 23.9041 21.7456 24.0072 21.7971 24.1102C21.7971 24.1617 21.7971 24.2133 21.7971 24.2648C21.9517 24.8832 21.8486 25.6561 21.8486 26.2745C21.9002 27.8719 21.9002 29.5208 21.9517 31.1183C21.7456 31.1183 21.3849 31.1698 21.2303 31.1183C21.1272 31.0667 21.0242 30.8091 20.9726 30.706C20.5604 30.0877 20.1481 29.4693 19.7874 28.7994C18.9114 27.4081 17.9839 26.0168 17.1079 24.6255C16.6441 23.8526 15.3559 23.8526 14.5314 23.8526C13.6039 23.8526 12.6763 24.0072 11.9034 24.4709C10.1514 25.5531 9.32689 27.6658 8.86312 29.5724C8.14171 32.6126 8.19324 35.8075 8.34783 38.8993C8.50242 41.2696 8.70854 43.7946 9.63607 45.9589C10.2029 47.2986 11.182 48.4838 12.6763 48.793C13.1401 48.896 13.6039 48.8961 14.1192 48.8445C14.4283 48.793 15.5105 48.7415 15.6651 48.4323C15.7166 48.3292 15.6651 48.0716 15.6651 47.9685C15.6651 47.6593 15.6651 47.4017 15.6651 47.0925C15.6651 45.289 15.6651 43.4854 15.6651 41.6304C15.6651 40.9089 15.6651 40.239 15.6651 39.5176C15.6651 39.1569 15.7681 39.0023 15.4589 38.7962C15.0982 38.5901 14.686 38.384 14.3253 38.1263C14.0676 37.9717 13.5523 37.8171 13.3977 37.611C13.2947 37.508 13.2432 36.9411 13.3462 36.8381C13.3977 36.735 13.3977 36.7865 13.5523 36.7865C14.0161 36.6835 14.6345 36.7865 15.0982 36.7865C15.9227 36.7865 16.7472 36.7865 17.6232 36.7865C19.4267 36.7865 21.2818 36.7865 23.0853 36.7865C23.6006 36.7865 24.1675 36.735 24.6828 36.7865C24.7343 36.7865 24.8889 36.7865 24.8889 36.7865C24.9404 36.8381 24.9404 37.5595 24.8889 37.6626C24.7858 37.8171 24.2705 38.0233 24.0644 38.1263C23.7037 38.3324 23.2915 38.5386 22.9308 38.7962C22.5185 39.0023 22.57 39.0023 22.57 39.4661C22.57 41.0635 22.57 42.7125 22.57 44.3099C22.57 45.1859 22.57 46.0619 22.57 46.9379C22.57 47.2471 22.57 47.5563 22.57 47.8655C22.57 47.9685 22.6216 48.2262 22.57 48.3292C22.467 48.5869 21.3849 48.7415 21.0757 48.8445C20.1997 49.1022 19.2721 49.3083 18.3446 49.4629C16.5411 49.7721 14.7375 49.8751 12.934 49.8236C10.0483 49.7205 7.00805 49.1022 4.63768 47.3502C2.57649 45.8558 1.23672 43.5885 0.618358 41.1151C0.154589 39.6722 0 38.0748 0 36.5289ZM23.7552 31.8397C23.7552 31.7366 23.7037 31.3244 23.7552 31.2729C23.8068 31.2213 23.8583 31.2729 23.9098 31.2213C24.219 31.0667 24.6312 31.0667 24.992 31.0152C26.1771 30.8091 27.3623 30.603 28.599 30.3969C29.5266 30.2423 30.4541 30.0361 31.3301 29.9331C31.5878 29.8816 31.8969 29.8816 32.1546 29.9846C32.4122 30.0361 32.3092 29.9846 32.3607 30.1907C32.4638 30.8091 32.3607 31.5305 32.3607 32.1489C32.3607 33.2825 32.3607 34.4162 32.3607 35.5498C32.3607 38.0233 32.3607 40.4452 32.3607 42.9186C32.3607 44.2068 32 46.5772 33.2367 47.3502C33.8551 47.7624 34.7311 47.7624 35.4525 47.6078C36.0193 47.5047 37.1015 47.0925 37.3076 46.4741C37.3591 46.3196 37.3076 46.1134 37.3076 45.9589C37.3076 45.5981 37.3076 45.2374 37.3076 44.8767C37.3076 42.5064 37.3076 40.136 37.3076 37.7141C37.3076 36.632 37.3076 35.4983 37.3076 34.4162C37.3076 34.0555 37.3076 33.6948 37.3076 33.3341C37.3076 33.231 37.3591 32.9218 37.3076 32.8188C37.153 32.6642 36.6377 32.5096 36.4831 32.458C36.1739 32.355 35.9163 32.2004 35.6071 32.0973C35.504 32.0458 35.1433 31.9943 35.0918 31.8912C35.0403 31.8397 35.0403 31.3759 35.0918 31.3244C35.1433 31.2729 35.1433 31.3244 35.1948 31.2729C35.4525 31.1183 35.9163 31.1698 36.1739 31.1183C38.2866 30.7576 40.4509 30.2938 42.6151 29.9846C42.8728 29.9331 43.1304 29.9331 43.3881 29.9846C43.6457 30.0361 43.5427 29.9331 43.5942 30.1907C43.6973 30.706 43.5942 31.4274 43.5942 31.9943C43.5942 34.3131 43.5942 36.632 43.5942 38.9508C43.5942 41.2181 43.5942 43.537 43.5942 45.8043C43.5942 46.165 43.5942 46.4742 43.5942 46.8349C43.5942 46.9894 43.5427 47.2471 43.5942 47.4532C43.6457 47.6078 43.5942 47.5563 43.8519 47.6593C44.3672 47.8655 44.934 48.1231 45.4493 48.3292C45.6039 48.3808 45.6554 48.3808 45.7069 48.4838C45.7585 48.5869 45.7585 48.9476 45.7069 48.9476C45.6039 49.0506 45.0886 48.9991 44.9855 49.0506C43.8519 49.2052 42.7182 49.3083 41.533 49.4629C40.5024 49.5659 39.4718 49.7205 38.4928 49.8236C38.2866 49.8751 38.0805 49.8751 37.8744 49.8236C37.7713 49.8236 37.4622 49.8236 37.4106 49.7721C37.3591 49.669 37.4106 49.2568 37.4106 49.1537C37.4106 48.8445 37.4106 48.5353 37.4106 48.2777C37.4106 48.1231 37.5137 47.7109 37.4106 47.5563C37.3076 47.4017 37.1015 47.6078 36.9469 47.7109C36.5346 48.0716 36.0709 48.4323 35.6071 48.6899C33.9066 49.7205 31.7939 50.1843 29.8358 49.7721C28.3929 49.4629 27.1562 48.6384 26.5378 47.2471C26.0741 46.268 25.971 45.1859 25.971 44.1553C25.971 42.0941 25.971 40.0329 25.971 38.0233C25.971 36.8381 25.971 35.6529 25.971 34.5192C25.971 34.107 25.971 33.7463 25.971 33.3341C25.971 33.231 26.0225 32.9218 25.971 32.8188C25.868 32.6642 25.2496 32.5096 25.095 32.4065C24.5797 32.2004 24.1675 32.0458 23.7552 31.8397ZM72.3478 29.8816C72.4509 29.8816 72.9147 29.8816 72.9662 29.9846C73.0177 30.0361 72.9662 30.3969 72.9662 30.4484C72.9662 31.1698 72.9662 31.8912 72.9662 32.6642C72.9662 33.4371 72.9662 34.2101 72.9662 34.983C72.9662 35.1376 72.9147 35.3952 72.9662 35.5498V35.6529C73.1723 35.859 73.2238 35.1891 73.2754 35.1376C73.7391 33.231 74.6151 31.0152 76.5733 30.2423C76.934 30.0877 77.2947 30.0361 77.6554 29.9846C77.9646 29.9846 78.8406 29.8816 78.9952 30.1392C79.0467 30.2423 78.9952 30.4999 78.9952 30.603C78.9952 30.9122 78.9952 31.2729 78.9952 31.582C78.9952 33.0249 78.9952 34.4162 78.9952 35.859C77.7585 35.6014 76.3672 35.6529 75.182 35.9105C74.6152 36.0136 74.0998 36.1682 73.5845 36.4258C73.3269 36.5289 73.2754 36.4774 73.2238 36.6835C73.1723 36.8896 73.2238 37.2503 73.2238 37.4564C73.2238 37.9202 73.2238 38.4355 73.2238 38.8993C73.2238 41.3727 73.2238 43.7946 73.2238 46.268C73.2238 46.6287 73.2238 47.041 73.2238 47.4017C73.2238 47.5047 73.1723 47.6593 73.2238 47.7624C73.3269 47.917 73.6876 48.02 73.8422 48.0716C74.0998 48.2262 74.409 48.3808 74.6667 48.5353C74.7697 48.5869 74.9243 48.6384 74.9759 48.7415C75.0274 48.793 75.0274 49.4114 74.9759 49.4629C74.9243 49.5144 74.6151 49.4629 74.5121 49.4629C74.0998 49.4629 73.6361 49.4629 73.2238 49.4629C71.9871 49.4629 70.7504 49.4629 69.4622 49.4629C68.277 49.4629 67.1433 49.4629 65.9581 49.4629C65.7005 49.4629 65.2367 49.5659 65.0306 49.4629C64.9791 49.4629 64.9275 49.4629 64.876 49.4629C64.8245 49.4114 64.876 48.8445 64.876 48.793C64.9791 48.4838 65.649 48.2777 65.9581 48.1231C66.1643 48.02 66.5765 47.8655 66.6796 47.6593C66.7311 47.5563 66.6796 47.2471 66.6796 47.144C66.6796 46.7833 66.6796 46.4226 66.6796 46.0619C66.6796 41.6304 66.6796 37.2503 66.6796 32.8188C66.6796 32.7672 66.7311 32.5096 66.6796 32.458C66.628 32.4065 66.3704 32.355 66.2673 32.355C65.9581 32.2519 65.649 32.1489 65.3398 32.0973C65.0306 31.9943 64.2577 31.9427 64.5153 31.4274C64.5668 31.2729 64.7729 31.3244 64.9791 31.2729C67.2464 30.8606 69.4622 30.4484 71.7295 30.0361C71.9356 29.9331 72.1417 29.9331 72.3478 29.8816ZM91.7746 30.3453C91.7746 28.954 91.7746 27.5627 91.7746 26.2229C91.7746 25.8107 91.7746 25.45 91.7746 25.0378C91.7746 24.8832 91.8261 24.574 91.7746 24.4194C91.723 24.3163 91.5169 24.2648 91.3623 24.2133C90.9501 24.0587 90.5378 23.9041 90.0741 23.7495C89.7649 23.6464 89.6103 23.698 89.6103 23.3373C89.6103 23.0281 89.5588 23.1312 89.8164 23.0796C90.3833 22.8735 91.0531 22.8735 91.62 22.7704C93.3205 22.4613 94.9694 22.1521 96.6699 21.8429C97.0306 21.7914 97.3913 21.6883 97.752 21.7398C98.1643 21.7914 98.2158 21.6883 98.2158 22.049C98.2673 22.8735 98.2158 23.7495 98.2158 24.574C98.2158 27.8719 98.2158 31.2213 98.2158 34.5192C98.2158 37.8687 98.2158 41.2181 98.2158 44.5675C98.2158 45.4436 98.2158 46.268 98.2158 47.144C98.2158 47.3502 98.1643 47.3502 98.3188 47.4532C98.628 47.6593 99.1433 47.7624 99.4525 47.8655C99.6586 47.917 100.225 48.02 100.329 48.1746C100.38 48.2262 100.38 48.793 100.329 48.8445C100.277 48.8961 99.9678 48.8961 99.9163 48.8961C99.1949 48.9991 98.525 49.1022 97.8036 49.1537C96.2061 49.3598 94.6087 49.5659 92.9598 49.7721C92.7021 49.8236 92.0837 49.9266 91.9807 49.7205C91.8776 49.5144 91.9807 48.8445 91.9807 48.6384C91.9807 48.4838 92.0837 47.8139 91.9807 47.7109C91.8776 47.6078 90.744 48.6384 90.5894 48.7415C89.971 49.1537 89.3011 49.4629 88.5797 49.669C87.4461 49.9782 86.1578 49.9782 85.0242 49.7205C80.0773 48.5869 79.0467 42.7125 79.459 38.4355C79.6651 36.1682 80.3865 33.9009 81.9324 32.2519C83.3752 30.7576 85.3333 29.9846 87.343 29.83C88.8889 29.6754 90.3833 29.7785 91.7746 30.3453ZM91.7746 46.7833C91.7746 42.5579 91.7746 38.3324 91.7746 34.107C91.7746 33.3341 91.7746 32.5096 91.7746 31.7366C91.7746 31.4274 91.723 31.3759 91.3623 31.1698C90.6409 30.7576 89.7134 30.603 88.9404 30.9122C87.7552 31.3759 87.1884 32.7672 86.8792 33.9009C86.2609 35.9621 86.2094 38.1779 86.2609 40.3421C86.3124 42.1972 86.3639 44.4645 87.3945 46.1134C88.3221 47.5563 90.4348 47.917 91.7746 46.7833ZM108.831 29.8816C109.089 29.9331 109.398 29.83 109.501 30.0877C109.552 30.2423 109.501 30.603 109.501 30.7576C109.501 31.7366 109.501 32.7157 109.501 33.6432C109.501 36.4774 109.501 39.26 109.501 42.0941C109.501 43.2793 109.501 44.516 109.501 45.7012C109.501 46.1134 109.501 46.5257 109.501 46.8864C109.501 47.0925 109.449 47.4017 109.501 47.6078C109.552 47.8139 109.758 47.8655 109.965 47.9685C110.274 48.1231 110.531 48.2777 110.841 48.4323C110.944 48.4838 111.253 48.5869 111.304 48.7415C111.304 48.793 111.356 49.4114 111.304 49.4629H111.15C110.841 49.5144 110.428 49.4629 110.068 49.4629C107.44 49.4629 104.863 49.4629 102.235 49.4629C102.029 49.4629 101.462 49.5659 101.308 49.4629C101.205 49.4114 101.153 48.793 101.256 48.6899C101.359 48.5353 101.72 48.4323 101.874 48.3808C102.184 48.2262 102.493 48.02 102.802 47.8655C103.06 47.7109 103.008 47.7624 103.008 47.5563C103.111 46.7833 103.008 45.9073 103.008 45.1344C103.008 43.7946 103.008 42.4548 103.008 41.0635C103.008 38.5901 103.008 36.1167 103.008 33.6432C103.008 33.4371 103.06 33.0764 103.008 32.8703C102.957 32.6642 102.699 32.6642 102.493 32.5611C102.132 32.4065 101.823 32.3035 101.462 32.1489C101.359 32.0973 100.947 32.0458 100.844 31.8912C100.792 31.8397 100.792 31.3244 100.844 31.2729C100.895 31.2213 100.998 31.2729 101.05 31.2213C101.462 31.0667 101.926 31.0667 102.39 30.9637C103.06 30.8606 103.678 30.706 104.348 30.603C105.636 30.3969 106.873 30.1392 108.161 29.9331C108.419 29.9846 108.625 29.9331 108.831 29.8816ZM109.552 25.0893C109.449 28.1811 105.275 29.5208 103.369 27.0989C102.493 25.9653 102.441 24.4194 103.214 23.2342C103.987 22.049 105.481 21.5337 106.873 21.8429C108.419 22.1521 109.552 23.4919 109.552 25.0893ZM132.122 47.7109C132.122 43.5885 132.122 39.4661 132.122 35.2922C132.122 34.5192 132.122 33.6948 132.122 32.9218C132.122 32.8703 132.174 32.6126 132.122 32.5611C132.071 32.458 131.762 32.4065 131.659 32.4065C131.349 32.3035 131.04 32.2004 130.731 32.0973C130.577 32.0458 130.164 31.9943 130.061 31.8397C129.958 31.7366 130.01 31.479 130.01 31.3244C130.01 31.0152 130.113 31.0667 130.422 31.0152C131.556 30.8091 132.689 30.603 133.823 30.3969C134.957 30.1907 136.09 29.9846 137.224 29.7785C137.43 29.727 137.585 29.6754 137.791 29.6754C137.894 29.6754 138.409 29.6754 138.512 29.727C138.564 29.7785 138.512 30.0877 138.512 30.1907C138.512 30.4999 138.512 30.8091 138.512 31.1698C138.512 31.3244 138.409 31.7882 138.512 31.9427C138.615 32.1489 138.821 31.9427 138.976 31.7882C139.44 31.4274 139.903 31.1183 140.419 30.8606C142.274 29.83 144.49 29.3663 146.602 29.6754C148.045 29.8816 149.23 30.6545 149.746 32.0458C150.106 33.0249 150.158 34.0555 150.158 35.0861C150.158 37.3018 150.158 39.4661 150.158 41.6819C150.158 42.9186 150.158 44.2068 150.158 45.4436C150.158 45.9073 150.158 46.3711 150.158 46.8349C150.158 47.041 150.106 47.4017 150.158 47.6078C150.209 47.8139 150.364 47.8655 150.622 47.9685C150.879 48.1231 151.188 48.2777 151.446 48.4323C151.549 48.4838 151.91 48.5869 151.961 48.7415C152.013 48.8445 152.013 49.3598 151.961 49.4114C151.91 49.5144 152.013 49.4114 151.858 49.4629C151.652 49.5659 151.188 49.4629 150.931 49.4629C148.457 49.4629 146.035 49.4629 143.562 49.4629C143.253 49.4629 142.068 49.6175 141.913 49.4114C141.862 49.3598 141.862 48.793 141.913 48.6899C141.965 48.5869 142.274 48.4838 142.377 48.4323C142.686 48.2777 142.944 48.1231 143.253 47.9685C143.356 47.917 143.665 47.8139 143.717 47.7109C143.768 47.6078 143.717 47.4017 143.717 47.2986C143.717 46.9379 143.717 46.5257 143.717 46.165C143.717 44.9798 143.717 43.7431 143.717 42.5579C143.717 40.239 143.717 37.9202 143.717 35.6014C143.717 34.7769 143.768 33.8494 143.253 33.1279C142.841 32.5096 142.119 32.355 141.398 32.3035C140.831 32.3035 140.316 32.355 139.8 32.5096C139.543 32.6126 138.77 32.8188 138.615 33.1279C138.564 33.231 138.615 33.4371 138.615 33.5402C138.615 33.9009 138.615 34.2616 138.615 34.6223C138.615 35.756 138.615 36.8896 138.615 38.0233C138.615 40.5482 138.615 43.1247 138.615 45.6497C138.615 46.0619 138.615 46.4742 138.615 46.8864C138.615 47.041 138.564 47.4017 138.615 47.5563C138.667 47.7624 138.976 47.8139 139.13 47.917C139.388 48.0716 139.697 48.2262 139.955 48.3808C140.058 48.4323 140.264 48.5353 140.316 48.5869C140.367 48.6384 140.367 49.2568 140.316 49.3083C140.316 49.3598 140.264 49.3083 140.213 49.3083C140.006 49.4113 139.491 49.3083 139.285 49.3083C138.1 49.3083 136.863 49.3083 135.678 49.3083C134.39 49.3083 133.153 49.3083 131.865 49.3083C131.453 49.3083 131.04 49.3083 130.628 49.3083C130.37 49.3083 130.319 49.3598 130.267 49.2052C130.216 49.1022 130.216 48.6384 130.267 48.5353C130.319 48.4323 130.628 48.3292 130.731 48.2777C131.246 48.2262 131.659 47.9685 132.122 47.7109ZM121.198 38.2294C121.198 36.8896 121.25 35.4983 121.147 34.107C120.992 32.6126 120.58 30.9637 118.879 30.6545C118.364 30.5514 117.436 30.3969 117.076 30.8091C116.715 31.1698 116.457 31.6851 116.148 32.0973C115.272 33.2825 114.396 34.4677 113.52 35.6529C113.366 35.859 113.211 36.2713 113.005 36.3743C112.953 36.4258 112.438 36.4258 112.438 36.3743C112.386 36.3228 112.438 35.9621 112.438 35.859C112.438 34.4677 112.438 33.0764 112.438 31.6851C112.438 31.5305 112.386 31.2729 112.438 31.1183C112.541 30.8606 113.675 30.706 113.932 30.603C115.375 30.2423 116.87 29.9846 118.364 29.8816C120.477 29.727 122.847 29.7785 124.805 30.706C126.351 31.4274 127.33 32.7157 127.588 34.3646C127.742 35.1891 127.691 36.1167 127.691 36.9411C127.691 39.8268 127.691 42.7125 127.691 45.5981C127.691 46.165 127.691 46.6803 127.691 47.2471C127.691 47.4017 127.588 47.8139 127.691 47.917C127.742 47.9685 128 48.02 128.052 48.02C128.464 48.1231 128.824 48.2262 129.237 48.3292C129.494 48.3808 129.546 48.3808 129.546 48.6384C129.546 48.8961 129.597 48.896 129.288 48.9991C128.928 49.1537 128.567 49.3083 128.206 49.4114C126.3 49.9782 123.311 50.1328 121.919 48.3808C121.816 48.2262 121.507 47.5563 121.353 47.5047C121.147 47.4532 120.528 48.2777 120.322 48.4323C119.498 49.1537 118.415 49.5659 117.333 49.7205C115.324 49.9782 113.159 49.5659 111.923 47.8139C110.892 46.3196 110.686 44.0007 111.459 42.3518C112.85 39.2084 116.973 38.8993 119.961 38.384C120.322 38.384 120.734 38.2809 121.198 38.2294ZM121.198 46.7833C121.198 44.2584 121.198 41.6819 121.198 39.1569C119.652 39.26 118.055 39.363 117.488 41.0635C117.076 42.1972 117.076 43.537 117.23 44.7221C117.333 45.5466 117.539 46.5772 118.312 47.0925C119.137 47.6593 120.528 47.5563 121.198 46.7833ZM55.9614 38.2294C55.9614 36.8896 56.0129 35.4983 55.9098 34.107C55.7552 32.6126 55.343 30.9637 53.6425 30.6545C53.1272 30.5514 52.1997 30.3969 51.839 30.8091C51.4783 31.1698 51.2206 31.6851 50.9114 32.0973C50.0354 33.2825 49.1594 34.4677 48.2834 35.6529C48.1288 35.859 47.9742 36.2713 47.7681 36.3743C47.7166 36.4258 47.2013 36.4258 47.2013 36.3743C47.1498 36.3228 47.2013 35.9621 47.2013 35.859C47.2013 34.4677 47.2013 33.0764 47.2013 31.7366C47.2013 31.582 47.1498 31.3244 47.2013 31.1698C47.3044 30.9122 48.3865 30.7576 48.6957 30.6545C50.1385 30.2938 51.6329 30.0361 53.0757 29.9331C55.1884 29.7785 57.5588 29.83 59.5169 30.7576C61.0628 31.479 62.0419 32.7672 62.2995 34.4162C62.4541 35.2407 62.4026 36.1682 62.4026 36.9927C62.4026 39.8783 62.4026 42.764 62.4026 45.6497C62.4026 46.2165 62.4026 46.7318 62.4026 47.2986C62.4026 47.4532 62.2995 47.8655 62.4026 47.9685C62.4541 48.02 62.7118 48.0716 62.7633 48.0716C63.1755 48.1746 63.5362 48.2777 63.9485 48.3808C64.2061 48.4323 64.2577 48.4323 64.2577 48.6899C64.2577 48.9476 64.3092 48.9476 64 49.0506C63.6393 49.2052 63.2786 49.3598 62.9179 49.4629C61.0113 50.0297 58.0225 50.1843 56.6312 48.4323C56.5282 48.2777 56.219 47.6078 56.0644 47.5563C55.8583 47.5047 55.2399 48.3292 55.0854 48.4838C54.2609 49.2052 53.1787 49.6175 52.0966 49.7721C50.087 50.0297 47.9227 49.6175 46.686 47.8655C45.6554 46.3711 45.4493 44.0523 46.2222 42.4033C47.6135 39.26 51.7359 38.9508 54.6731 38.4355C55.0854 38.384 55.4976 38.2809 55.9614 38.2294ZM55.9614 46.7833C55.9614 44.2584 55.9614 41.6819 55.9614 39.1569C54.4155 39.26 52.818 39.363 52.2512 41.0635C51.839 42.1972 51.839 43.537 51.9936 44.7221C52.0966 45.5466 52.3027 46.5772 53.0757 47.0925C53.9002 47.6593 55.2915 47.5563 55.9614 46.7833Z" fill="#FDF6E3"/>
</svg>
