<svg width="172" height="49" viewBox="0 0 172 49" fill="none" xmlns="http://www.w3.org/2000/svg">
<path fill-rule="evenodd" clip-rule="evenodd" d="M74.8436 48.898H76.4537L76.0571 41.6298H73.9037L73.1254 44.0456C72.8875 44.8539 72.6396 45.8145 72.4314 46.6553H72.4007C72.239 45.8036 72.012 44.8974 71.785 44.0565L71.0721 41.6308H68.8791L68.4141 48.899H69.9379L70.0678 46.1389C70.1213 45.2328 70.154 44.1119 70.1977 43.1305H70.2195C70.392 44.0793 70.6408 45.115 70.8788 45.9668L71.6571 48.7813H72.9459L73.8323 45.945C74.1129 45.0933 74.4163 44.0585 74.6423 43.1305H74.6711C74.6711 44.1871 74.7038 45.2436 74.7355 46.1172L74.8436 48.898ZM81.0411 47.0323L81.6032 48.898H83.3749L81.1164 41.6298H78.9551L76.7293 48.898H78.4366L78.9551 47.0323H81.0371H81.0411ZM79.193 45.8036L79.6253 44.2613C79.7443 43.8408 79.8523 43.2908 79.9604 42.8595H79.9822C80.0903 43.2908 80.2202 43.83 80.3501 44.2613L80.8031 45.8036H79.193ZM89.7331 44.7361H87.0205V46.0222H88.1448V47.5427C87.8154 47.6523 87.466 47.6887 87.121 47.6492C86.7761 47.6098 86.444 47.4955 86.148 47.3143C85.852 47.1332 85.5993 46.8896 85.4077 46.6007C85.2161 46.3118 85.0902 45.9845 85.0388 45.6419C84.9874 45.2993 85.0117 44.9496 85.1102 44.6173C85.2086 44.2851 85.3787 43.9784 85.6085 43.7187C85.8384 43.459 86.1224 43.2527 86.4406 43.1142C86.7589 42.9756 87.1037 42.9083 87.4508 42.9169C88.0322 42.8977 88.6109 43.0044 89.1471 43.2295L89.4931 41.9137C88.8514 41.6574 88.1635 41.5362 87.4726 41.5576C85.0842 41.5576 83.3224 42.9426 83.3085 45.3535C83.2866 45.8409 83.3666 46.3276 83.5434 46.7825C83.7203 47.2374 83.9901 47.6506 84.3357 47.9958C84.7399 48.3461 85.2095 48.6132 85.7176 48.7816C86.2257 48.95 86.7622 49.0165 87.2961 48.9772C88.1229 48.9646 88.943 48.8265 89.7281 48.5676V44.7391L89.7331 44.7361ZM94.373 47.0332L94.9352 48.899H96.7069L94.4484 41.6308H92.287L90.0612 48.899H91.7685L92.287 47.0332H94.3691H94.373ZM92.527 45.8036L92.9592 44.2613C93.0782 43.8408 93.1863 43.2908 93.2943 42.8595H93.3161C93.4242 43.2908 93.5531 43.83 93.683 44.2613L94.1371 45.8036H92.527ZM96.8536 48.898H102.516V47.5398H99.0705V47.4962L102.464 42.5795V41.6308H97.1798V42.9891H100.324V43.0336L96.8536 48.0156V48.9V48.898ZM103.124 41.6298V48.898H104.777V41.6308H103.124V41.6298ZM107.289 48.898V46.7098C107.289 45.5226 107.267 44.4987 107.223 43.5441L107.252 43.5282C107.628 44.4053 108.05 45.2618 108.516 46.0944L110.073 48.898H111.802V41.6308H110.289V43.7548C110.279 44.7667 110.326 45.7783 110.429 46.7849H110.397C110.055 45.9296 109.658 45.0974 109.207 44.2939L107.696 41.6308H105.773V48.899H107.286L107.289 48.898ZM117.137 44.4878H114.46V42.9782H117.302V41.6308H112.806V48.899H117.453V47.5506H114.46V45.8253H117.137V44.4878Z" fill="#FDF6E3"/>
<path fill-rule="evenodd" clip-rule="evenodd" d="M132.684 0H161.436C166.911 0 171.35 4.42914 171.35 9.89277V38.5818C171.35 44.0454 166.911 48.4746 161.436 48.4746H132.684C127.208 48.4746 122.77 44.0454 122.77 38.5818V9.89277C122.77 4.42914 127.208 0 132.684 0ZM140.423 36.0462H128.808H128.805V15.216H131.5V33.7907H140.423V36.0462ZM144.825 21.0883V36.0462H142.1V21.0883H144.825ZM142.804 15.3028C143.013 15.2194 143.237 15.1795 143.462 15.1853C143.794 15.189 144.118 15.2904 144.392 15.4766C144.666 15.6629 144.879 15.9258 145.004 16.2324C145.13 16.5389 145.161 16.8756 145.096 17.2001C145.03 17.5246 144.87 17.8225 144.635 18.0565C144.4 18.2905 144.102 18.4503 143.776 18.5156C143.451 18.581 143.114 18.5492 142.807 18.424C142.499 18.2989 142.236 18.0862 142.05 17.8124C141.863 17.5386 141.762 17.2159 141.758 16.8849C141.752 16.6601 141.793 16.4364 141.876 16.2276C141.96 16.0187 142.085 15.829 142.245 15.67C142.404 15.5111 142.594 15.3861 142.804 15.3028ZM151.083 23.1589V36.0462H148.388V23.1589H146.282V21.0834H148.388V20.3731C148.388 18.2719 148.853 16.3556 150.123 15.1507C151.114 14.2315 152.425 13.7328 153.777 13.7598C154.572 13.7568 155.36 13.9035 156.1 14.1921L155.729 16.2933C155.183 16.0544 154.591 15.9382 153.995 15.953C151.672 15.953 151.083 17.9929 151.083 20.2801V21.0883H154.706V23.1589H151.083ZM167.656 27.7946C167.651 28.2186 167.62 28.6419 167.562 29.0619V29.0629H157.032C157.095 32.74 159.448 34.2546 162.174 34.2546C163.597 34.2992 165.013 34.0356 166.324 33.482L166.788 35.4289C165.21 36.0847 163.511 36.4006 161.802 36.3558C157.187 36.3558 154.431 33.3267 154.431 28.8146C154.431 24.3025 157.099 20.748 161.461 20.748C166.355 20.748 167.656 25.0445 167.656 27.7946ZM161.245 22.6959C158.488 22.6959 157.28 25.2294 157.063 27.115H165.023C165.054 25.3848 164.311 22.6959 161.245 22.6959Z" fill="#FDF6E3"/>
<path fill-rule="evenodd" clip-rule="evenodd" d="M4.43793 37.0404V15.395H0.493969V37.0404H4.43793ZM2.46595 6.85362C2.13997 6.84519 1.81569 6.90304 1.51283 7.02365C1.20998 7.14426 0.934889 7.32511 0.704312 7.55518C0.473735 7.78525 0.292494 8.05974 0.17162 8.36193C0.0507473 8.66413 -0.00723004 8.9877 0.00121992 9.31297C-0.00901412 9.62942 0.0452297 9.94465 0.160664 10.2396C0.276098 10.5345 0.450322 10.803 0.672785 11.0287C0.895247 11.2545 1.16132 11.4329 1.45489 11.553C1.74846 11.6732 2.06341 11.7326 2.38069 11.7278C2.70344 11.7367 3.02475 11.6816 3.32605 11.5658C3.62734 11.45 3.90264 11.2757 4.13602 11.0531C4.36941 10.8305 4.55625 10.5639 4.68574 10.2687C4.81523 9.97361 4.8848 9.6558 4.89044 9.33368C4.89607 9.01156 4.83766 8.69151 4.71857 8.39206C4.59948 8.0926 4.42208 7.81967 4.19662 7.58905C3.97117 7.35843 3.70213 7.17469 3.40507 7.04846C3.10801 6.92223 2.78882 6.856 2.46595 6.85362ZM9.32773 37.0414H13.2271V24.9663C14.2586 25.1781 15.3114 25.2681 16.364 25.2344C20.1741 25.2344 23.5351 24.1165 25.5973 21.9253C26.394 21.0594 27.0103 20.0441 27.4104 18.9386C27.8106 17.833 27.9866 16.6591 27.9282 15.4851C27.9744 14.3053 27.7617 13.1297 27.305 12.0405C26.8482 10.9513 26.1585 9.97482 25.284 9.17941C23.4915 7.56986 20.6679 6.67456 16.8131 6.67456C14.3061 6.66099 11.8024 6.85556 9.32773 7.25626V37.0404V37.0414ZM13.2271 10.0737C14.4364 9.83126 15.6693 9.72606 16.9024 9.76012C21.2052 9.76012 24.0289 11.6833 24.0289 15.6631C24.0289 19.8181 21.1606 22.1033 16.4542 22.1033C15.3696 22.1328 14.2856 22.0275 13.2271 21.7897V10.0737ZM31.0334 37.0414H34.9774V23.983C34.9397 23.3448 35.031 22.7055 35.246 22.1033C35.6056 20.9785 36.309 19.9942 37.2576 19.2884C38.2062 18.5826 39.3524 18.1909 40.5354 18.168C44.2553 18.168 45.5551 21.12 45.5551 24.6082V37.0404H49.499V24.161C49.499 16.692 44.8393 14.9034 41.9244 14.9034C40.5049 14.9176 39.1139 15.3031 37.8902 16.0213C36.7112 16.6695 35.7341 17.6297 35.0666 18.7962H34.9774V5.2876H31.0334V37.0434V37.0414ZM63.3158 14.9034C57.3096 14.9034 52.5586 19.1523 52.5586 26.3968C52.5586 33.2396 57.0856 37.5331 62.9569 37.5331C68.2006 37.5331 73.7587 34.0449 73.7587 26.0397C73.7587 19.4204 69.546 14.9034 63.3158 14.9034ZM63.2266 17.8554C67.8863 17.8554 69.7255 22.505 69.7255 26.1742C69.7255 31.0494 66.9018 34.5831 63.1373 34.5831C59.2826 34.5831 56.5492 31.0049 56.5492 26.2642C56.5482 22.1479 58.5648 17.8554 63.2266 17.8554ZM76.9541 37.0404H80.898V24.0265C80.886 23.4045 80.9768 22.7849 81.1667 22.1924C81.502 21.0457 82.1964 20.0363 83.1482 19.312C84.1 18.5876 85.2592 18.1864 86.4561 18.167C90.176 18.167 91.4758 21.0735 91.4758 24.5627V37.0404H95.4197V24.1165C95.4197 16.6969 90.7599 14.9034 87.7559 14.9034C86.3022 14.865 84.8656 15.2239 83.6015 15.9412C82.3374 16.6586 81.2939 17.707 80.5838 18.9733H80.4945L80.2705 15.395H76.7746C76.9095 17.1837 76.9541 19.0178 76.9541 21.2535V37.0404ZM117.483 26.933C117.567 26.3254 117.612 25.7131 117.618 25.0999C117.618 21.119 115.734 14.9034 108.655 14.9034C102.334 14.9034 98.4803 20.0476 98.4803 26.5768C98.4803 33.1061 102.469 37.4896 109.147 37.4896C111.62 37.5544 114.079 37.0973 116.363 36.1481L115.691 33.3306C113.793 34.1317 111.744 34.5131 109.685 34.4485C105.741 34.4485 102.334 32.2573 102.249 26.935H117.487L117.483 26.933ZM102.289 24.1155C102.604 21.3871 104.352 17.7198 108.337 17.7198C112.775 17.7198 113.851 21.6107 113.805 24.1155H102.289Z" fill="#FDF6E3"/>
<path fill-rule="evenodd" clip-rule="evenodd" d="M41.205 6.43846V8.59311H39.1289V9.14314H41.205V11.3196H41.7929V9.14314H43.869V8.59311H41.7929V6.43846H41.205ZM45.3512 11.3156V6.87869H44.5412V11.3156H45.3502H45.3512ZM44.9477 5.12767C44.8809 5.12632 44.8146 5.13845 44.7526 5.16333C44.6906 5.18821 44.6344 5.22532 44.5871 5.27244C44.5399 5.31956 44.5027 5.37572 44.4778 5.43754C44.4529 5.49936 44.4407 5.56557 44.4421 5.6322C44.443 5.73058 44.4731 5.82648 44.5285 5.90788C44.5839 5.98927 44.6621 6.05253 44.7534 6.08973C44.8447 6.12693 44.945 6.1364 45.0416 6.11697C45.1383 6.09754 45.227 6.05006 45.2967 5.98049C45.3665 5.91092 45.414 5.82236 45.4335 5.72591C45.453 5.62946 45.4435 5.52943 45.4062 5.43834C45.3689 5.34726 45.3055 5.26919 45.224 5.21392C45.1424 5.15865 45.0463 5.12865 44.9477 5.12767ZM46.3545 11.3156H47.1537V8.8424C47.3652 8.88598 47.5812 8.90458 47.7971 8.8978C48.1421 8.9177 48.4876 8.86784 48.8128 8.75122C49.1381 8.6346 49.4364 8.45363 49.6898 8.21916C49.8531 8.04159 49.9795 7.83339 50.0615 7.60667C50.1436 7.37995 50.1796 7.13922 50.1676 6.89847C50.1772 6.65654 50.1335 6.41546 50.0399 6.19211C49.9462 5.96876 49.8047 5.76854 49.6253 5.60549C49.1291 5.22747 48.5108 5.04473 47.8883 5.09205C47.3743 5.08905 46.861 5.12876 46.3536 5.21077V11.3166L46.3545 11.3156ZM47.1537 5.78752C47.4016 5.73779 47.6544 5.71622 47.9072 5.72321C48.0855 5.68884 48.2692 5.69435 48.4451 5.73933C48.621 5.78432 48.7848 5.86767 48.9245 5.98338C49.0643 6.09909 49.1766 6.24428 49.2534 6.4085C49.3302 6.57272 49.3695 6.75189 49.3685 6.9331C49.3716 7.12785 49.3314 7.32086 49.2509 7.4983C49.1704 7.67574 49.0515 7.83321 48.9028 7.95943C48.7542 8.08565 48.5794 8.17749 48.3909 8.22838C48.2025 8.27927 48.0051 8.28795 47.813 8.25378C47.5907 8.25977 47.3686 8.23817 47.1517 8.18948V5.78752H47.1537ZM53.8082 11.3156C53.7534 10.9638 53.7289 10.6081 53.7349 10.2521V8.59311C53.7724 8.35731 53.7557 8.11609 53.686 7.88769C53.6163 7.65929 53.4954 7.44971 53.3326 7.2748C53.1697 7.0999 52.9691 6.96426 52.7459 6.87815C52.5227 6.79204 52.2829 6.75772 52.0444 6.77778C51.5299 6.77112 51.0237 6.90818 50.5831 7.17349L50.7665 7.70473C51.1145 7.49002 51.5153 7.37566 51.9245 7.37432C52.0625 7.35909 52.2022 7.37535 52.333 7.42185C52.4639 7.46836 52.5824 7.54391 52.6797 7.6428C52.777 7.74169 52.8505 7.86133 52.8947 7.99271C52.9389 8.12408 52.9526 8.26375 52.9348 8.40119V8.49319C51.2166 8.48428 50.2579 9.07093 50.2579 10.1433C50.256 10.3182 50.2906 10.4916 50.3593 10.6525C50.4281 10.8133 50.5295 10.9582 50.6573 11.078C50.785 11.1978 50.9363 11.2898 51.1015 11.3482C51.2667 11.4066 51.4423 11.4302 51.6171 11.4175C51.8801 11.4232 52.1406 11.3664 52.3772 11.2516C52.6137 11.1369 52.8195 10.9675 52.9774 10.7576H53.0081L53.0726 11.3166H53.8072L53.8082 11.3156ZM52.9536 9.8208C52.9518 9.90805 52.9364 9.99449 52.908 10.077C52.8312 10.2987 52.6856 10.4902 52.4924 10.6238C52.2991 10.7574 52.0683 10.8261 51.8333 10.82C51.7306 10.827 51.6275 10.8118 51.5313 10.7755C51.435 10.7392 51.3476 10.6825 51.2753 10.6095C51.2029 10.5364 51.1472 10.4487 51.1119 10.3522C51.0766 10.2557 51.0626 10.1527 51.0708 10.0503C51.0708 9.18865 52.0722 9.03234 52.9546 9.05114V9.82179L52.9536 9.8208ZM57.7056 4.80615V7.45544H57.6867C57.5438 7.23356 57.3441 7.05373 57.1084 6.93444C56.8726 6.81516 56.6092 6.76074 56.3453 6.77679C56.0542 6.79334 55.7695 6.86947 55.5091 7.00045C55.2487 7.13143 55.018 7.31445 54.8315 7.53815C54.645 7.76185 54.5065 8.02143 54.4248 8.30077C54.3431 8.58012 54.3199 8.87325 54.3565 9.16194C54.3243 9.43619 54.3487 9.71411 54.4281 9.9786C54.5076 10.2431 54.6405 10.4886 54.8187 10.6999C54.9968 10.9112 55.2164 11.0838 55.464 11.2073C55.7115 11.3307 55.9818 11.4022 56.2581 11.4175C56.5672 11.4293 56.8735 11.3539 57.1416 11.1999C57.4098 11.0459 57.6289 10.8196 57.774 10.5469H57.7928L57.8265 11.3166H58.5523C58.5245 11.0139 58.5156 10.5647 58.5156 10.171V4.80714H57.7056V4.80615ZM57.7056 9.45576C57.708 9.5729 57.6957 9.68989 57.6689 9.80398C57.6114 10.0763 57.4617 10.3205 57.2451 10.4958C57.0285 10.671 56.758 10.7666 56.4792 10.7665C56.2811 10.7546 56.0878 10.7014 55.9117 10.6102C55.7356 10.519 55.5806 10.392 55.4568 10.2373C55.3329 10.0826 55.243 9.9037 55.1929 9.71215C55.1427 9.52061 55.1334 9.3207 55.1655 9.12534C55.1315 8.92428 55.1396 8.71836 55.1894 8.5206C55.2392 8.32283 55.3295 8.13753 55.4548 7.9764C55.58 7.81527 55.7374 7.68182 55.917 7.58448C56.0965 7.48715 56.2944 7.42805 56.498 7.41092C56.7704 7.40992 57.0348 7.50221 57.2472 7.67236C57.4596 7.8425 57.6071 8.08022 57.6649 8.34579C57.6907 8.45702 57.7031 8.57094 57.7016 8.68511V9.45576H57.7056Z" fill="#FDF6E3"/>
</svg>
