<svg width="48" height="48" viewBox="0 0 48 48" fill="none" xmlns="http://www.w3.org/2000/svg">
<path d="M24 48C37.2548 48 48 37.2548 48 24C48 10.7452 37.2548 0 24 0C10.7452 0 0 10.7452 0 24C0 37.2548 10.7452 48 24 48Z" fill="#063642"/>
<path d="M13 26.574C13 24.4207 13.8014 22.3467 15.4041 20.352C17.0295 18.3573 18.8354 16.9067 20.8219 16L21.4653 17.36C19.8851 18.2667 18.5306 19.4 17.4019 20.76C16.2958 22.0973 15.7427 23.4573 15.7427 24.84C15.7427 25.112 15.8218 25.316 15.9798 25.452C16.1604 25.588 16.3861 25.656 16.657 25.656C18.1243 25.4973 18.9144 25.418 19.0273 25.418C19.7722 25.418 20.5736 25.69 21.4314 26.234C22.3118 26.778 22.752 27.7073 22.752 29.022C22.752 30.1327 22.3908 31.0733 21.6684 31.844C20.9461 32.6147 19.9189 33 18.5871 33C17.0295 33 15.7089 32.3993 14.6253 31.198C13.5418 29.974 13 28.4327 13 26.574ZM25.248 26.846C25.248 24.4207 26.0607 22.2333 27.686 20.284C29.3339 18.312 31.1286 16.884 33.0699 16L33.7133 17.36C32.1331 18.2667 30.7787 19.3887 29.65 20.726C28.5438 22.0407 27.9908 23.3893 27.9908 24.772C27.9908 25.0213 28.0585 25.2367 28.1939 25.418C28.3294 25.5767 28.5664 25.656 28.905 25.656C30.3498 25.4973 31.1398 25.418 31.2753 25.418C32.1105 25.418 32.9345 25.724 33.7471 26.336C34.5824 26.9253 35 27.8093 35 28.988C35 29.9173 34.6727 30.824 34.018 31.708C33.386 32.5693 32.3137 33 30.8012 33C29.1759 33 27.844 32.3767 26.8056 31.13C25.7672 29.8607 25.248 28.4327 25.248 26.846Z" fill="#FDF6E3"/>
</svg>
